<?xml version="1.0" ?><!DOCTYPE svg  PUBLIC '-//W3C//DTD SVG 1.1//EN'  'http://www.w3.org/Graphics/SVG/1.1/DTD/svg11.dtd'><svg enable-background="new 0 0 1024 1024" height="1024px" id="Facebook_1_" version="1.1" viewBox="0 0 1024 1024" width="1024px" xml:space="preserve" xmlns="http://www.w3.org/2000/svg" xmlns:xlink="http://www.w3.org/1999/xlink"><g id="Background_1_"><g id="bg_1_"><path d="M75.094,306.009c0-27.5,19.413-61.375,43.14-75.277L468.861,25.286c23.727-13.902,62.553-13.902,86.28,0    l350.625,205.445c23.729,13.902,43.141,47.777,43.141,75.277v412c0,27.5-19.412,61.375-43.141,75.277L555.141,998.731    c-23.727,13.901-62.553,13.901-86.28,0L118.234,793.286c-23.727-13.902-43.14-47.777-43.14-75.277V306.009z" fill="#3B5998"/></g><path d="M938.094,262.262c0,0-1.045-2.021-3.289-5.308   c-1.818-2.664-3.744-5.561-6.111-8.186c-5-5.546-6.697-6.941-7.377-7.551c-2.637-2.356-5.848-4.802-8.945-6.617   c-2.26-1.325-362.889-212.631-362.889-212.631s-6.123-3.544-11.67-5.322c-5.547-1.777-9.457-2.56-13.51-3.128   c-4.053-0.569-9.672-0.854-13.298-0.854c-3.626,0-12.089,0.711-15.716,1.564c-3.626,0.854-6.275,1.511-7.235,1.831   s-3.173,1.093-4.08,1.387c-0.905,0.293-5.093,2.16-5.333,2.293c-0.239,0.133-1.643,0.776-2.431,1.239   c-0.789,0.462-351.617,206.025-351.617,206.025s-14.796,8.097-20.628,13.074c-2.496,2.131-5.265,4.867-7.658,7.582   c-3.196,3.627-5.807,7.203-7.027,9.093c-0.922,1.43-2.28,3.533-3.493,5.707c-1.577,2.825-3.032,5.837-3.667,7.147   c-1.162,2.398-3.293,8.053-3.827,9.76s-1.547,5.533-1.707,6.436c-0.041,0.233-0.693,3.521-0.747,3.911   c-0.054,0.391-0.44,2.92-0.533,4.267c-0.033,0.48-0.212,2.897-0.212,2.969c-0.001,0.071-0.001,429.512-0.001,429.512   s0.349,5.078,0.427,5.635c0.028,0.203,0.453,3.433,0.782,4.837c0.213,0.91,0.64,2.986,0.925,3.981   c0.285,0.995,0.729,2.636,0.96,3.342c0.213,0.653,0.959,2.917,1.209,3.591c0.249,0.675,1.25,3.248,1.529,3.912   c0.286,0.681,1.813,4.018,1.92,4.23C82.951,756.204,938.094,262.262,938.094,262.262z" enable-background="new    " fill="#FFFFFF" id="bg-light" opacity="0.2"/></g><path d="M649.174,335.915v-86.827c-3.188,0-6.377-0.006-9.564,0  c-7.678,0.017-15.355-0.019-23.033,0.001c-9.361,0.024-18.725-0.039-28.086,0.001c-8.25,0.036-16.502-0.083-24.75,0.002  c-12.451,0.129-24.271,0.741-36.213,4.586c-11.516,3.708-22.323,10.202-31.53,17.989c-5.331,4.509-10.266,9.338-14.736,14.707  c-1.81,2.23-3.494,4.548-5.07,6.946c-4.727,7.194-8.458,15.106-11.577,23.497c-0.702,1.888-1.39,3.782-2.046,5.685  c-4.809,13.93-4.967,29.135-4.967,43.773c0,1.833,0,3.723,0,5.656c0,29,0,67.662,0,67.662h-82.772v95.573h79.787h2.133v239.787  h94.72v-241.92l85.973,1.16l11.592-93.974l-97.137-0.2v-72.533c0,0-0.215-30.933,26.025-31.36L649.174,335.915z" fill="#FFFFFF" id="Facebook"/></svg>