<?xml version="1.0" ?><!DOCTYPE svg  PUBLIC '-//W3C//DTD SVG 1.1//EN'  'http://www.w3.org/Graphics/SVG/1.1/DTD/svg11.dtd'><svg enable-background="new 0 0 1024 1024" height="1024px" id="Linkedin" version="1.1" viewBox="0 0 1024 1024" width="1024px" xml:space="preserve" xmlns="http://www.w3.org/2000/svg" xmlns:xlink="http://www.w3.org/1999/xlink"><g id="Background"><linearGradient gradientTransform="matrix(0.9397 0.342 0.342 -0.9397 275.869 765.6677)" gradientUnits="userSpaceOnUse" id="bg_2_" x1="416.0493" x2="-145.7618" y1="-15.668" y2="653.91"><stop offset="0" style="stop-color:#061D36"/><stop offset="0.1426" style="stop-color:#06233F"/><stop offset="0.3751" style="stop-color:#053457"/><stop offset="0.6685" style="stop-color:#044F7F"/><stop offset="1" style="stop-color:#0374B4"/></linearGradient><circle cx="512.002" cy="512.009" fill="url(#bg_2_)" id="bg" r="436.907"/><g id="bg_1_"><path d="M75.094,306.009c0-27.5,19.413-61.375,43.14-75.277L468.861,25.286c23.727-13.902,62.553-13.902,86.28,0    l350.625,205.445c23.729,13.902,43.141,47.777,43.141,75.277v412c0,27.5-19.412,61.375-43.141,75.277L555.141,998.731    c-23.727,13.901-62.553,13.901-86.28,0L118.234,793.286c-23.727-13.902-43.14-47.777-43.14-75.277V306.009z" fill="#00679B"/></g><path d="M938.092,262.262c0,0-1.043-2.021-3.287-5.308   c-1.818-2.664-3.744-5.561-6.111-8.186c-5-5.546-6.697-6.941-7.377-7.551c-2.637-2.355-5.848-4.801-8.945-6.617   c-2.26-1.325-362.889-212.631-362.889-212.631s-6.123-3.544-11.67-5.321c-5.547-1.778-9.457-2.56-13.51-3.129   s-9.672-0.854-13.298-0.854c-3.626,0-12.089,0.711-15.716,1.565c-3.626,0.853-6.275,1.511-7.235,1.831s-3.173,1.093-4.08,1.387   c-0.905,0.293-5.093,2.16-5.333,2.293c-0.239,0.133-1.643,0.776-2.431,1.238c-0.789,0.462-351.617,206.025-351.617,206.025   s-14.797,8.097-20.628,13.074c-2.497,2.131-5.266,4.867-7.658,7.582c-3.196,3.627-5.807,7.203-7.026,9.093   c-0.923,1.43-2.28,3.533-3.494,5.707c-1.577,2.825-3.032,5.837-3.667,7.147c-1.162,2.398-3.293,8.053-3.827,9.76   s-1.547,5.534-1.707,6.436c-0.042,0.234-0.693,3.521-0.747,3.911c-0.053,0.391-0.44,2.92-0.533,4.267   c-0.033,0.48-0.211,2.897-0.212,2.969c-0.001,0.072-0.001,429.511-0.001,429.511s0.349,5.079,0.427,5.635   c0.028,0.203,0.453,3.433,0.782,4.836c0.213,0.91,0.64,2.987,0.924,3.982c0.284,0.995,0.729,2.636,0.96,3.342   c0.213,0.653,0.96,2.917,1.209,3.591c0.249,0.675,1.25,3.248,1.529,3.912c0.286,0.68,1.813,4.018,1.92,4.23   C82.951,756.204,938.092,262.262,938.092,262.262z" enable-background="new    " fill="#FFFFFF" id="bg-light" opacity="0.2"/></g><g id="Linkedin_3_"><polygon fill="#FFFFFF" points="317.175,700.352 407.886,700.352 407.776,382.536 317.064,382.536  "/><path d="M720.745,467.561c-2.219-12.648-5.824-25.101-11.342-36.719c-3.188-6.712-7.203-13.054-11.961-18.77   c-5.555-6.668-12.943-12.804-20.447-17.174c-6.432-3.744-13.762-7.142-20.938-9.177c-4.254-1.086-8.623-1.833-13.057-2.332   c-13.307-1.498-27.182-0.772-40.516,0.255c-3.83,0.446-7.631,0.986-11.398,1.633c-3.766,0.647-7.498,1.401-11.186,2.249   c-6.502,2.004-12.158,5.165-16.992,9.312s-8.846,9.281-12.068,15.224c-1.848,3.411-3.449,7.009-4.494,10.753   c-0.053,0.197-0.996,4.625-0.801,4.625c-0.002,0-1.414,0-1.414,0l-0.111-44.904h-90.676l0.11,317.886h90.076   c0,0,0-170.472,0-193.786c0-10.835,6.961-19.861,15.889-25.276c8.658-5.251,19.363-5.722,29.205-6.358   c4.492-0.292,9.172-0.146,13.646,0.316c7.77,0.803,15.598,3.258,21.406,8.689c9.697,9.069,11.199,22.901,11.199,35.432   c0,10.123,0,20.246,0,30.37c0,15.292,0,30.584,0,45.876c0,16.362,0,32.724,0,49.083c0,13.279,0,26.56,0,39.839   c0,5.272,0,10.544,0,15.815h89.229c0-5.266,0-10.531,0-15.797c0-13.504,0-27.008,0-40.512c0-16.628,0-33.259,0-49.887   c0-27.241,0-54.484,0-81.727C724.104,497.519,723.34,482.346,720.745,467.561z" fill="#FFFFFF"/><circle cx="362.53" cy="315.667" fill="#FFFFFF" r="45.568"/></g></svg>