<?xml version="1.0" ?><!DOCTYPE svg  PUBLIC '-//W3C//DTD SVG 1.1//EN'  'http://www.w3.org/Graphics/SVG/1.1/DTD/svg11.dtd'><svg enable-background="new 0 0 1024 1024" height="1024px" id="Whatsapp_1_" version="1.1" viewBox="0 0 1024 1024" width="1024px" xml:space="preserve" xmlns="http://www.w3.org/2000/svg" xmlns:xlink="http://www.w3.org/1999/xlink"><g id="Background"><g id="bg_1_"><path d="M75.094,306.009c0-27.5,19.413-61.375,43.14-75.277L468.861,25.286c23.727-13.902,62.553-13.902,86.28,0    l350.625,205.445c23.729,13.902,43.141,47.777,43.141,75.277v412c0,27.5-19.412,61.375-43.141,75.277L555.141,998.731    c-23.727,13.901-62.553,13.901-86.28,0L118.234,793.286c-23.727-13.902-43.14-47.777-43.14-75.277V306.009z" fill="#09D261"/></g><path d="M938.092,262.262c0,0-1.043-2.021-3.287-5.308   c-1.818-2.664-3.744-5.561-6.111-8.186c-5-5.546-6.697-6.941-7.377-7.551c-2.637-2.355-5.848-4.801-8.945-6.617   c-2.26-1.324-362.889-212.63-362.889-212.63s-6.123-3.544-11.67-5.321c-5.547-1.778-9.457-2.56-13.512-3.129   c-4.053-0.569-9.67-0.854-13.296-0.854c-3.627,0-12.089,0.711-15.716,1.565c-3.627,0.853-6.276,1.511-7.236,1.831   s-3.173,1.093-4.08,1.387c-0.906,0.293-5.094,2.16-5.333,2.293c-0.239,0.133-1.643,0.776-2.431,1.238   S124.593,227.005,124.593,227.005s-14.797,8.097-20.628,13.074c-2.497,2.131-5.266,4.867-7.658,7.582   c-3.196,3.627-5.807,7.203-7.026,9.093c-0.923,1.43-2.28,3.533-3.494,5.707c-1.577,2.825-3.032,5.837-3.667,7.147   c-1.162,2.398-3.293,8.053-3.827,9.76s-1.547,5.534-1.707,6.436c-0.042,0.234-0.693,3.52-0.747,3.911   c-0.053,0.391-0.44,2.92-0.533,4.267c-0.033,0.48-0.211,2.897-0.212,2.969c-0.001,0.072-0.001,429.511-0.001,429.511   s0.349,5.079,0.427,5.635c0.028,0.203,0.454,3.433,0.782,4.836c0.213,0.91,0.64,2.987,0.924,3.982   c0.285,0.995,0.729,2.636,0.96,3.342c0.213,0.653,0.96,2.917,1.209,3.591c0.249,0.676,1.25,3.248,1.529,3.912   c0.286,0.681,1.813,4.018,1.92,4.23C82.951,756.204,938.092,262.262,938.092,262.262z" enable-background="new    " fill="#FFFFFF" id="bg-light" opacity="0.2"/></g><path d="M694.342,328.962c-47.506-48.904-113.182-75.452-180.248-75.452  c-142.526,0-257.101,115.972-255.702,257.101c0,44.708,12.575,88.035,33.534,127.154l-36.331,132.743l135.54-34.934  c37.723,20.961,79.643,30.744,121.561,30.744l0,0c141.127,0,255.709-115.974,255.709-257.106  C768.407,440.746,741.852,376.469,694.342,328.962z M514.096,722.995L514.096,722.995c-37.729,0-75.455-9.771-107.596-29.338  l-8.378-4.189l-81.046,20.959l20.958-79.646l-5.586-8.379c-61.48-99.216-32.136-230.56,68.465-292.039  c100.608-61.48,230.552-32.136,292.033,68.465c61.486,100.608,32.143,230.56-68.465,292.032  C592.344,711.818,553.215,722.995,514.096,722.995z M637.053,567.9l-15.365-6.985c0,0-22.357-9.785-36.332-16.771  c-1.396,0-2.795-1.391-4.195-1.391c-4.188,0-6.986,1.391-9.775,2.796l0,0c0,0-1.4,1.394-20.961,23.745  c-1.396,2.796-4.195,4.202-6.986,4.202h-1.396c-1.4,0-4.191-1.405-5.588-2.797l-6.986-2.798l0,0  c-15.373-6.985-29.347-15.363-40.522-26.553c-2.797-2.784-6.986-5.582-9.784-8.379c-9.783-9.782-19.562-20.959-26.546-33.531  l-1.399-2.8c-1.397-1.397-1.397-2.79-2.796-5.587c0-2.797,0-5.587,1.398-6.985c0,0,5.589-6.987,9.783-11.177  c2.791-2.798,4.191-6.986,6.987-9.783c2.79-4.188,4.188-9.784,2.79-13.973c-1.391-6.987-18.163-44.717-22.352-53.095  c-2.797-4.196-5.596-5.595-9.782-6.987h-4.189c-2.797,0-6.987,0-11.183,0c-2.792,0-5.588,1.392-8.385,1.392l-1.393,1.399  c-2.797,1.398-5.596,4.196-8.386,5.587c-2.797,2.798-4.196,5.596-6.986,8.386c-9.784,12.574-15.372,27.946-15.372,43.318l0,0  c0,11.174,2.797,22.357,6.985,32.135l1.399,4.195c12.574,26.547,29.344,50.302,51.694,71.262l5.597,5.582  c4.188,4.202,8.379,6.988,11.176,11.189c29.344,25.15,62.877,43.31,100.608,53.093c4.188,1.394,9.775,1.394,13.971,2.798l0,0  c4.191,0,9.779,0,13.975,0c6.986,0,15.365-2.798,20.959-5.593c4.188-2.799,6.988-2.799,9.777-5.597l2.799-2.783  c2.787-2.797,5.586-4.203,8.383-6.986c2.791-2.798,5.588-5.595,6.986-8.392c2.791-5.582,4.189-12.568,5.588-19.555  c0-2.797,0-6.986,0-9.783C641.25,570.698,639.852,569.293,637.053,567.9z" fill="#FFFFFF" id="Whatsapp"/></svg>